<svg xmlns="http://www.w3.org/2000/svg" enable-background="new 0 0 66 66" viewBox="0 0 66 66" id="spiderman"><path fill="#3590CE" d="M63.99696,33.25112c0,17.11822-13.87907,30.99728-30.99728,30.99728
				c-17.12365,0-31.00272-13.87907-31.00272-30.99728c0-17.12365,13.87906-31.00272,31.00272-31.00272
				C50.11789,2.2484,63.99696,16.12747,63.99696,33.25112z"></path><path fill="#F0523C" d="M55.06828,55.02435c-5.62,5.69-13.42999,9.21997-22.07001,9.21997
				c-8.63995,0-16.45996-3.52996-22.07996-9.22998c0.37-0.15002,0.71997-0.33002,1.06995-0.53003l6.91003-4.08997
				c2.66998-1.59003,4.31-4.45001,4.31-7.56l0.52997-9.20001h19.58002l-0.52997,9.20001c0,3.10999,1.63995,5.96997,4.31,7.56
				l6.88,4.08002C54.32829,54.68432,54.68827,54.86432,55.06828,55.02435z"></path><path fill="#172540" d="M33.18964,45.64721c-0.09814,0-0.19727-0.01904-0.29102-0.05859l-2.12061-0.89258
				c-0.27832-0.11719-0.45898-0.38965-0.45898-0.69141v-3.52051c0-0.41406,0.33594-0.75,0.75-0.75h3.46973
				c0.41406,0,0.75,0.33594,0.75,0.75v3.29004c0,0.22266-0.09912,0.43408-0.27002,0.57666l-1.34912,1.12305
				C33.53241,45.58764,33.362,45.64721,33.18964,45.64721z M31.81903,43.50659l1.24121,0.52246l0.72852-0.60645v-2.18848h-1.96973
				V43.50659z"></path><path fill="#172540" d="M31.06415 41.2395c-.23877 0-.47314-.11377-.61865-.3252l-4.70947-6.85791c-.23438-.3418-.14795-.80859.19336-1.04297.3418-.23486.80859-.14795 1.04297.19336l4.70947 6.85791c.23438.3418.14795.80859-.19336 1.04297C31.35858 41.19702 31.21063 41.2395 31.06415 41.2395zM34.53485 41.2395c-.12402 0-.25-.03076-.36572-.09521-.36133-.20264-.49072-.65918-.28857-1.021l3.83594-6.85791c.20313-.36133.66113-.48828 1.021-.28857.36133.20264.49072.65918.28857 1.021l-3.83594 6.85791C35.05243 41.10131 34.79755 41.2395 34.53485 41.2395z"></path><path fill="#F0523C" d="M49.91721,18.66862v7.28433c0,4.04828-1.05964,8.02606-3.07357,11.53785l-6.49346,11.32297
				c-1.50871,2.63083-4.30967,4.2534-7.3424,4.2534h-0.00001c-3.02979,0-5.8285-1.61945-7.33831-4.24625l-6.50791-11.32263
				c-2.02116-3.51646-3.0848-7.50148-3.0848-11.55742v-7.27224c0-9.34477,7.57544-16.92021,16.92021-16.92021h0.00003
				C42.34178,1.7484,49.91721,9.32384,49.91721,18.66862z"></path><path fill="#FFF" d="M46.5564,18.80798l-5.84396,4.48184l-3.82274,6.63488c0,0,6.45912,6.59093,9.66671-2.5485
				C47.26576,25.35501,46.5564,18.80798,46.5564,18.80798z"></path><path fill="#010101" d="M42.7106,24.6972l-3.82355,6.63973c0,0,0.07283,0.07283,0.20633,0.19418
				c-1.29882-0.67975-2.20919-1.60228-2.20919-1.60228l3.82362-6.63966l5.85071-4.47907c0,0,0.1335,1.21384,0.23056,2.75544
				L42.7106,24.6972z" opacity=".1"></path><path fill="#FFF" d="M19.43757,18.80798l5.84397,4.48184l3.82274,6.63488c0,0-6.45912,6.59093-9.66671-2.5485
				C18.72822,25.35501,19.43757,18.80798,19.43757,18.80798z"></path><path fill="#010101" d="M23.28338,24.6972l3.82355,6.63973c0,0-0.07283,0.07283-0.20633,0.19418
				c1.29882-0.67975,2.20919-1.60228,2.20919-1.60228l-3.82362-6.63966l-5.85071-4.47907c0,0-0.1335,1.21384-0.23056,2.75544
				L23.28338,24.6972z" opacity=".1"></path><path fill="#172540" d="M39.16003,2.09997C37.23999,1.39001,35.16003,1,33,1c-0.33997,0-0.66998,0.01001-1,0.02997
				c-0.01001,0-0.01001,0-0.01001,0h-0.01001c-0.04999,0-0.10999,0.01001-0.15997,0.01001
				c-1.73999,0.11005-3.40997,0.48004-4.97998,1.06C12.27002,4.96997,1.25,17.84997,1.25,33.25C1.25,50.57598,15.29403,65,33,65
				c17.64457,0,31.75-14.35596,31.75-31.75C64.75,17.84997,53.72998,4.96997,39.16003,2.09997z M63.25,33.25
				c0,8.08002-3.17999,15.42999-8.38,20.85999c-0.16998-0.08997-0.33997-0.17999-0.51001-0.27997l-4.44-2.64001h-0.00995
				c-2.15933-1.32033-2.75203-1.50694-3.70001-2.38c-1.08112-0.91464-2.12455-2.53326-2.5-4.34998
				c0.94557-1.64198,3.27087-5.70237,3.77997-6.60004c1.73004-3.02002,2.79004-6.38,3.09003-9.83996
				c0.01001-0.04004,0.01001-0.09003,0.01001-0.13c0.04999-0.64001,0.07996-1.29004,0.07996-1.94v-7.28003
				c0-5.06-2.14996-9.63001-5.56995-12.84998c-0.02002-0.02002-0.03003-0.03003-0.05005-0.04004
				c-0.03998-0.06-0.08997-0.09998-0.14996-0.13995l-0.04004-0.04004c-0.10999-0.10999-0.21997-0.20996-0.33997-0.31
				C55.51001,9.82,63.25,20.65002,63.25,33.25z M45.28998,60.88l-1.37-2.37l5.73004-5.73004l3.94,2.34003
				c0.06,0.03003,0.10999,0.06,0.16998,0.09998C51.25338,57.61348,48.30732,59.56477,45.28998,60.88z M12.22998,55.21002
				c0.05005-0.03003,0.09003-0.06,0.14001-0.08002l4.97003-2.94L22.31,58.41998l-1.39996,2.54999
				C17.67999,59.57,14.75,57.60998,12.22998,55.21002z M18.65002,51.40997l0.63-0.37c1.87-1.10999,3.27997-2.82001,4.03998-4.79999
				c1.44942,2.40814,1.84258,3.50929,3.06,4.75l-3.27997,6L18.65002,51.40997z M21.33002,12.97998l3.96997,9.37l-5.40997-4.13995
				c-0.21002-0.16003-0.5-0.20001-0.75-0.09003c-0.25,0.09998-0.41998,0.34003-0.45001,0.60999
				c-0.02997,0.35999-0.23999,2.29999-0.29999,4.33002l-1.54999-1.71002l-0.01001-0.01001v-1.98999L21.33002,12.97998z
				 M16.97003,16.53998c0.34998-2.64996,1.34998-5.08997,2.81995-7.17999l0.85004,2L16.97003,16.53998z M39.70001,48.44
				c-0.21002,0.37-0.45001,0.71997-0.72003,1.03998L37.63,42.5L41.37,36.19c0.34734,0.34898-1.25951-1.26294,3.40002,3.40997
				C38.47832,50.55665,46.64782,36.3255,39.70001,48.44z M37.69,50.72998c-1.4082,1.07235-3.10616,1.59003-4.67999,1.59003
				c-1.71835,0-3.40014-0.58268-4.73999-1.65002c-0.08002-0.04999-0.16003-0.10999-0.23999-0.17999
				c0.022-0.20315,0.8204-7.57577,0.76996-7.10999c0.10428-0.00323,7.53101-0.2332,7.42999-0.22998
				C36.24971,43.25247,37.78769,51.23712,37.69,50.72998z M32.97998,34.76001h-1.57996c0-0.10069,0-1.39073,0-1.29004
				l0.66998-0.40997l0.90997,0.34998C32.97998,33.51067,32.97998,34.8607,32.97998,34.76001z M33.25,36.26001l2.45001,5.39996
				l-6.5,0.21002l1.97998-5.60999H33.25z M42.47998,35.16998c-0.10005-0.10005-0.59004-0.59004-0.48999-0.48999L42,34.38
				l0.07001-1.42999c0.15997-0.01001,0.32001-0.04004,0.47998-0.07001c1.29004-0.26001,2.77002-1.15002,3.98004-3.53003
				l2.44995-0.51996c-0.37,2.90997-1.31995,5.72998-2.78998,8.28998l-0.65002,1.13
				C45.43999,38.14936,42.28706,34.9758,42.47998,35.16998z M47.23999,27.65997c0.01001-0.00995,0.02002-0.02997,0.02002-0.03998
				c0.46002-1.31,0.40002-4.12,0.26001-6.25L48.81,19.56l0.35999-0.03998v6.42999c0,0.44-0.00995,0.88-0.03998,1.32001
				L47.23999,27.65997z M47.25,18.54999l0.22003,0.29999l-0.13,0.20001c-0.02002-0.14996-0.03003-0.26001-0.04004-0.32001
				S47.28003,18.60998,47.25,18.54999z M48.75,18.06l-5.25-7.39002l1.23999-3.08997c2.61005,2.75,4.26001,6.40997,4.42004,10.44
				L48.75,18.06z M47.02002,18.21997c-0.04999-0.03998-0.10999-0.07996-0.16998-0.09998c-0.25-0.10999-0.53003-0.07001-0.75,0.09003
				c-6.51001,5.01996-5.90002,4.29999-6.54004,5.58997l-0.82001-1.33002L42.83002,12.32L47.02002,18.21997z M40.46002,25.23999
				l0.82996-1.45001l4.65002-3.56c0.02002,0.22003,0.03998,0.46002,0.06,0.70001c0.04999,0.76001,0.09003,1.59998,0.10999,2.41998
				c0.05005,2.14001,0.03003,3.27002-0.62,4.67999c-0.71997,1.76001-1.94,3.44-3.83997,3.44c-0.34003,0-0.67999-0.04999-1-0.13
				c-1.19-0.31995-2.25-1.09998-2.81-1.56C37.90002,29.67999,40.46002,25.23999,40.46002,25.23999z M36.23999,29.54999
				c-0.16998,0.28998-0.12,0.66003,0.11005,0.90002c0.09998,0.08997,1.91998,1.91998,4.22998,2.40997V32.88L40.5,34.38
				l-0.02002,0.37l-3.54999,6l-2.45001-5.41003c0-0.11422,0-2.40524,0-2.29999l0.06-0.15997l3.51001-8.67999l0.65002,1.07001
				L36.23999,29.54999z M29.90002,33.20001c0,0.12694,0,2.31348,0,2.19L27.87,41.13
				c-0.0818-0.10198-4.82224-6.01233-4.73999-5.91003c-0.00696-0.10045-0.17736-2.56038-0.16998-2.45996
				c0.75812,0.2369,1.56698,0.2686,2.31,0.12c1.58002-0.28003,2.95001-1.22003,3.70996-1.84002L29.76001,32.88L29.90002,33.20001z
				 M20.15002,27.13c-0.5-1.34003-0.21002-5.48999-0.09003-6.90002c0.10004,0.08002,4.38,3.35999,4.65002,3.56
				c0.06,0.09003,3.23999,5.64001,3.44,5.98999c-3.23999,2.73004-6.16003,2.37005-7.92999-2.45996V27.31
				C20.20001,27.25,20.16998,27.19,20.15002,27.13z M27.07001,22.66998L31.22998,20.5v11.31L31,31.95001L27.07001,22.66998z
				 M31.22998,18.81l-4.75,2.47998l-4.06995-9.60999l8.81995-6.31V18.81z M18.39001,25.29999
				c0.03998,0.92999,0.14001,1.76001,0.33997,2.32001c0.38,1.08002,0.82001,2,1.33002,2.76001l-2.70001,0.40997
				c-0.34998-1.58997-0.52997-3.20996-0.52997-4.84998v-2.37L18.39001,25.29999z M21.20001,31.73999
				c0.06,0.06,0.12,0.10999,0.19,0.16003L21.63,35.23999L19.87,37.22998l-0.06-0.10999c-0.88-1.53998-1.58002-3.16998-2.07001-4.87
				L21.20001,31.73999z M22.35999,36.67999c0.08063,0.10018,5.39594,6.70408,4.99005,6.20001l-0.67004,6.14001
				c-0.19765-0.27375-6.46258-11.1905-6.01996-10.42004L22.35999,36.67999z M27.53003,52.01001
				c1.40997,1.04999,3.12,1.67999,4.90997,1.78998v7.41003l-8.16998-3.26001L27.53003,52.01001z M33.94,53.77002
				c1.64001-0.17004,3.19-0.77002,4.5-1.74005l3.46002,5.98004L33.94,61.21002V53.77002z M39.60004,51.03997
				C40.14001,50.48999,40.60999,49.86999,41,49.19l1.67999-2.94H42.69c0.09003,0.26001,0.20001,0.51001,0.32001,0.76001
				c0.58427,1.1848,1.15554,1.8423,1.76001,2.48999c1.29256,1.33718,2.5294,1.85057,3.53998,2.48999l-5.16998,5.16998
				L39.60004,51.03997z M32.72998,2.51001C32.82001,2.5,32.91003,2.5,33,2.5c2.03003,0,3.97003,0.37,5.75,1.06
				c1.78003,0.67999,3.41998,1.66998,4.83002,2.90002l-1.28003,3.15997L32.72998,3.5V2.51001z M32.72998,5.27997l9,5.75
				l-4.13995,10.29004L32.72998,18.81V5.27997z M32.72998,20.5l4.30005,2.21002L33.31,31.92999l-0.58002-0.22998V20.5z
				 M27.25,3.55999C28.5,3.07,29.84003,2.75,31.22998,2.59997v0.92999L21.81,10.27002l-0.95996-2.25
				c0.00995-0.01001,0.00995-0.01001,0.00995-0.01001C22.58002,6.04998,24.76001,4.51001,27.25,3.55999z M21.47998,5.28998
				c-3.76996,3.23999-6.14996,8.04004-6.14996,13.38001V25.94c0,1.96002,0.23999,3.91998,0.71997,5.81
				c0.01001,0.04999,0.02002,0.08997,0.03003,0.13c0.52997,2.08996,1.34998,4.10998,2.42999,5.98999L22.28998,44.44
				c-0.44995,2.19-1.81,4.14001-3.76996,5.31l-1.37,0.81L11.62,53.83001c-0.17999,0.09998-0.33997,0.19-0.5,0.26996
				C5.92999,48.66998,2.75,41.32,2.75,33.25C2.75,20.65002,10.48999,9.82,21.47998,5.28998z M22.31,61.53997l1.23999-2.26001
				l8.84003,3.52002l-0.07001,0.67999C29.66418,63.57843,24.05579,62.41234,22.31,61.53997z M33.83002,63.46997l0.06-0.63
				L42.66003,59.32l1.22998,2.14001C41.3268,62.74065,36.95058,63.33269,33.83002,63.46997z"></path><path fill="#FFF" d="M25.12074,13.13755c-1.63062-1.63062-1.01733-4.88821,1.36664-7.27218
				c2.39229-2.39229,5.64982-3.00553,7.28045-1.37491c1.63062,1.63062,1.01738,4.88816-1.37491,7.28045
				C30.00895,14.15488,26.75136,14.76818,25.12074,13.13755z" opacity=".2"></path><ellipse cx="22.917" cy="15.682" fill="#FFF" opacity=".2" rx="2.533" ry="2.034" transform="rotate(135 22.917 15.681)"></ellipse></svg>